<svg xmlns="http://www.w3.org/2000/svg" xmlns:xlink="http://www.w3.org/1999/xlink" width="244.319" height="80.434" viewBox="0 0 244.319 80.434">
  <defs>
    <clipPath id="clip-path">
      <rect id="Rectangle_1" data-name="Rectangle 1" width="244.319" height="80.434" transform="translate(0 0.001)" fill="none"/>
    </clipPath>
  </defs>
  <g id="Group_2" data-name="Group 2" transform="translate(0 -0.001)">
    <g id="Group_1" data-name="Group 1" clip-path="url(#clip-path)">
      <path id="Path_3" data-name="Path 3" d="M243.814,10.462a3.567,3.567,0,0,1-1.416,1.419,3.851,3.851,0,0,1-3.813,0,3.581,3.581,0,0,1-1.419-1.419,3.836,3.836,0,0,1,.008-3.826,3.529,3.529,0,0,1,1.434-1.416,3.831,3.831,0,0,1,3.767,0,3.524,3.524,0,0,1,1.432,1.416,3.846,3.846,0,0,1,.007,3.826m-.559-3.505a2.94,2.94,0,0,0-1.2-1.183,3.182,3.182,0,0,0-3.139,0,2.967,2.967,0,0,0-1.2,1.183,3.187,3.187,0,0,0-.008,3.187,3.012,3.012,0,0,0,1.186,1.183,3.189,3.189,0,0,0,3.178,0,3,3,0,0,0,1.182-1.183,3.2,3.2,0,0,0-.008-3.187m-1.521,2.591a7.646,7.646,0,0,0,.325,1.176h-.573a5.2,5.2,0,0,1-.279-1.023c-.127-.591-.362-.814-.865-.832h-.521v1.855h-.553V6.5a5.705,5.705,0,0,1,1.062-.1,1.77,1.77,0,0,1,1.245.356,1.069,1.069,0,0,1,.337.814,1.131,1.131,0,0,1-.807,1.087v.019a1.089,1.089,0,0,1,.629.864m-.381-1.913c0-.553-.4-.8-.985-.8a2.269,2.269,0,0,0-.547.052V8.449h.566c.591,0,.966-.325.966-.814" fill="#fff" fill-rule="evenodd"/>
      <path id="Path_4" data-name="Path 4" d="M110.915,75.833c2.668-.693,5.351-1.237,8.038-1.684.672-.105,1.343-.226,2.016-.317l2.018-.28c1.347-.161,2.692-.329,4.04-.453,5.386-.536,10.774-.762,16.152-.82s10.746.085,16.1.375q4.017.218,8.025.548,2,.167,4.007.367c1.338.136,2.662.277,4.02.461a1.02,1.02,0,0,1-.231,2.026h-.016c-1.293-.122-2.629-.211-3.95-.291s-2.651-.146-3.979-.2q-3.981-.171-7.966-.22-7.968-.108-15.915.275c-5.29.271-10.566.709-15.779,1.443-1.305.174-2.6.39-3.9.6l-1.935.35c-.646.113-1.283.256-1.925.383-2.558.533-5.088,1.155-7.56,1.9l-.009,0a2.32,2.32,0,0,1-1.347-4.441l.09-.025" fill="#d5955d"/>
      <path id="Path_5" data-name="Path 5" d="M117.455,44.143h-3.84c-7,0-11.906-2.4-10.88-8.508l4.351-25.928a38.891,38.891,0,0,1,9.672-1.65,48.76,48.76,0,0,1,8.9.169c4.142.541,8.331,2.241,11.064,5.509,2.761,3.3,3.4,7.663,2.7,11.814a22.077,22.077,0,0,1-21.971,18.594m3.283-28.323h-2.257a12.428,12.428,0,0,0-1.728.2l-3.026,18.033a1.823,1.823,0,0,0,1.873,2.293h1.749c6.211,0,10.215-4.025,11.225-10.036,1.171-6.979-2.53-10.493-7.836-10.493" fill="#fff"/>
      <path id="Path_6" data-name="Path 6" d="M168.841,43.685c-3.9,0-5.756-1.019-5.9-4.177-.068-1.274-.175-2.651-.381-4.127H149.122c-1.275,2.547-2.552,6.114-3.37,8.3H141.4c-3.443,0-4.675-1.732-4.24-4.331.855-5.094,11.5-24.451,19.34-30.818h4.178c3.782,0,5.975,1.731,6.947,3.667,2.786,5.6,6.324,19.51,6.066,31.482ZM158.986,17.3a72.092,72.092,0,0,0-6.276,10.5h8.918a55.261,55.261,0,0,0-2.642-10.5" fill="#fff"/>
      <path id="Path_7" data-name="Path 7" d="M191.681,28.962l-2.47,14.723h-4.685c-2.935,0-5.733-1.835-5.134-5.4l1.572-9.374a54.515,54.515,0,0,1-8.827-20.376h5.419c3.5,0,5.444,1.527,5.93,3a53.151,53.151,0,0,0,4.606,9.882A61.824,61.824,0,0,0,197.65,8.536h5.082c2.484,0,3.8,1.578,3.542,3.106-.5,2.955-10.356,13.6-14.593,17.32" fill="#fff"/>
      <path id="Path_8" data-name="Path 8" d="M214.76,44.5c-8.581,0-12.713-2.954-11.867-8l.581-3.464h.281c2.052,2.241,6.911,3.566,11.371,3.566,4.966,0,6.727-1.07,7.12-3.413.36-2.14-1.666-2.853-7.414-3.923-8.211-1.528-11.014-4.329-10.116-9.678,1.051-6.266,8.312-11.868,18.192-11.868,9.6,0,12.608,3.921,12,7.537l-.625,3.719H234c-2.2-2.342-6.718-3.361-10.782-3.361-5.3,0-7.326,1.272-7.658,3.259-.266,1.58.321,2.446,7.324,3.77,7.769,1.477,11.113,4.431,10.2,9.883C231.861,39.813,225.147,44.5,214.76,44.5" fill="#fff"/>
      <path id="Path_9" data-name="Path 9" d="M125.392,68c-2.124,0-3.489-1.044-3.14-3.133.3-1.8.973-6.94,1.115-9.9L118.9,63.387A32.225,32.225,0,0,1,115.909,68h-1.7c-2.089,0-3.491-1.421-4.19-5.487l-.565-3.338c-.269-1.653-.647-3.425-.859-4.266-.959,3.425-2.318,9.781-2.873,13.091h-2.282c-1.864,0-3.37-1.16-3.04-3.133a86.546,86.546,0,0,1,4.764-16.9h2.121c3.534,0,5.081,1.51,5.589,3.282l1.08,3.89a43.713,43.713,0,0,1,1.2,5.659c.733-1.48,1.706-3.25,2.622-4.7l2.892-4.586a12.5,12.5,0,0,1,3.261-3.542h1.125c3.213,0,4.49,1.6,4.424,4.471A117.213,117.213,0,0,1,127.994,68Z" fill="#fff"/>
      <path id="Path_10" data-name="Path 10" d="M147.118,68c-2.217,0-3.276-.579-3.361-2.38-.038-.724-.1-1.509-.214-2.35h-7.651c-.724,1.451-1.45,3.483-1.919,4.73H131.5c-1.961,0-2.663-.986-2.414-2.466.487-2.9,6.547-13.934,11.013-17.564h2.377a4.126,4.126,0,0,1,3.957,2.091c1.587,3.194,3.6,11.118,3.45,17.939ZM141.51,52.967a40.949,40.949,0,0,0-3.572,5.978h5.078a31.537,31.537,0,0,0-1.506-5.978" fill="#fff"/>
      <path id="Path_11" data-name="Path 11" d="M165.962,68.148c-2.056,0-3.205-.813-3.629-2.119l-1.091-3.252c-.582-1.712-1.141-2.031-2.555-2.206-.287-.027-.6-.057-.95-.086L156.474,68h-2.345c-2.38,0-3.542-1.306-3.229-3.164l2.733-16.285a31.4,31.4,0,0,1,6.8-.87h2.477c4.754,0,7.736,2.35,7.127,5.98a6.863,6.863,0,0,1-4.95,5.369c.987.436,1.41,1.162,1.978,2.759l1.158,3.25a11.869,11.869,0,0,0,1.133,2.438l-.024.146a9.093,9.093,0,0,1-3.366.522m-5.587-16.11c-.256,0-.782.056-1.242.115l-.74,4.412a20.544,20.544,0,0,0,2.427.088,2.92,2.92,0,0,0,2.994-2.323c.244-1.451-.418-2.292-2.186-2.292Z" fill="#fff"/>
      <path id="Path_12" data-name="Path 12" d="M186.075,52.589h-3.149L180.339,68h-2.666c-1.833,0-3.314-.755-2.959-2.873l2.1-12.541h-6.331l.322-1.916A3.764,3.764,0,0,1,174.7,48h15.555l-.321,1.914c-.209,1.248-1.992,2.672-3.857,2.672" fill="#fff"/>
      <path id="Path_13" data-name="Path 13" d="M62.5,69.857a5.288,5.288,0,1,0,5.289,5.289A5.289,5.289,0,0,0,62.5,69.857M21.736,8.155,17.007,4.169a15.19,15.19,0,0,0-3.428-2.175A21.723,21.723,0,0,0,4.231,0a4.231,4.231,0,0,0,0,8.462A13.252,13.252,0,0,1,9.956,9.641a8.225,8.225,0,0,1,1.245.717l6.133,5.162L13.747,37.735H44.829l-18.7,29.609H73.9L91.36,37.375l4.777-29.22ZM48.945,18.508l-.008.061a3.123,3.123,0,0,1-6.187-.863l.009-.06a3.123,3.123,0,1,1,6.186.862M59.883,28.957l-.009.06a3.123,3.123,0,1,1-6.186-.862l.008-.061a3.123,3.123,0,0,1,6.187.863M61.34,18.508l-.009.061a3.123,3.123,0,0,1-6.186-.863l.008-.06a3.123,3.123,0,0,1,6.187.862M72.089,28.957l-.008.06a3.123,3.123,0,0,1-6.187-.862l.009-.061a3.123,3.123,0,0,1,6.186.863m1.457-10.449-.008.061a3.123,3.123,0,0,1-6.187-.863l.009-.06a3.123,3.123,0,1,1,6.186.862M83.889,28.957l-.009.06a3.123,3.123,0,1,1-6.186-.862l.008-.061a3.123,3.123,0,0,1,6.187.863m1.456-10.449-.008.061a3.123,3.123,0,0,1-6.186-.863l.008-.06a3.123,3.123,0,1,1,6.186.862M36.324,69.857a5.288,5.288,0,1,0,5.289,5.289,5.289,5.289,0,0,0-5.289-5.289" fill="#d5955d"/>
      <path id="Path_14" data-name="Path 14" d="M205.13,63.416h-.795l-.817,4.169c-.048.245-.089.474-.127.689-.149.834-.256,1.437-.564,1.687a1.562,1.562,0,0,1-.97.222,2.945,2.945,0,0,1-.329-.027l-.4-.049-.145.741c-.122.622.382,1.04,1.255,1.04a3.07,3.07,0,0,0,2.978-2.258l.952-4.858c.123-.631.118-1.356-1.035-1.356" fill="#fff"/>
      <path id="Path_15" data-name="Path 15" d="M209.494,67.3c-.609,0-.791-.227-.671-.839l.968-4.791c.124-.632.119-1.357-1.035-1.357h-.794l-1.246,6.208c-.318,1.624.382,2.686,1.969,2.752h1.752l.711-1.973Z" fill="#fff"/>
      <path id="Path_16" data-name="Path 16" d="M216.6,62.213a4.17,4.17,0,0,0-4.087,3.642c-.24,1.225-.471,1.441-1.545,1.441h-.89l.152,1.961h.2a.847.847,0,0,0,.165.015,4,4,0,0,0,2.557-.77,2.822,2.822,0,0,0,2.061.785,4.138,4.138,0,0,0,3.983-3.673c.392-2-.675-3.4-2.6-3.4m.536,3.627c-.07.359-.382,1.531-1.436,1.531-1.3,0-1.2-1.208-1.1-1.727.186-.949.745-1.515,1.5-1.515.34,0,1.373,0,1.038,1.711" fill="#fff"/>
      <path id="Path_17" data-name="Path 17" d="M202.121,63.431h-.794l-.6,3.066c-.17.668-.492.8-.992.8h-5.048c-1.4,0-1.109-1.7-1.093-1.779l.007-.03.23-1.123a5.119,5.119,0,0,1,.482-1.406c-1.049,0-2.258.555-2.667,2.642-.349,1.78.457,3.672,2.638,3.672a.853.853,0,0,0,.171-.015h5.267c1.67-.1,2.805-1.254,3.2-3.251l.239-1.218c.124-.631.118-1.356-1.035-1.356" fill="#fff"/>
      <path id="Path_18" data-name="Path 18" d="M196.665,63.518A1.386,1.386,0,0,0,198,62.447a.871.871,0,0,0-.917-1.071,1.416,1.416,0,0,0-1.353,1.071.886.886,0,0,0,.933,1.071" fill="#fff"/>
      <path id="Path_19" data-name="Path 19" d="M199.152,63.518a1.423,1.423,0,0,0,1.337-1.071.888.888,0,0,0-.917-1.071,1.408,1.408,0,0,0-1.369,1.071.884.884,0,0,0,.949,1.071" fill="#fff"/>
      <path id="Path_20" data-name="Path 20" d="M230.281,55.855l.21-1.3a2.786,2.786,0,0,0-.415-2.153,2.211,2.211,0,0,0-1.84-.838,3.111,3.111,0,0,0-2.19.87,4.041,4.041,0,0,0-1.138,2.309,2.9,2.9,0,0,0,.021,1.114h-1.3l-.307,1.9h7.981l.308-1.9Zm-3.165-2.112a.869.869,0,0,1,.714-.367.773.773,0,0,1,.628.21c.273.314.188,1.114.03,2.073-.01.062-.021.126-.031.189a2.77,2.77,0,0,1-1.38-.272c-.275-.188-.373-.483-.29-1.011a1.858,1.858,0,0,1,.329-.822" fill="#fff"/>
      <path id="Path_21" data-name="Path 21" d="M240.34,52.415a.893.893,0,0,0-.9-.438h-.762l-.54,3.338a.778.778,0,0,1-.209.461.7.7,0,0,1-.47.117,1.528,1.528,0,0,1-.639-.144c.024-.081.047-.162.067-.25l.021-.093,0-.019-.007-.022c.043-.3.22-1.414.335-2.122a1.439,1.439,0,0,0-.057-.828.894.894,0,0,0-.9-.438h-.761l-.539,3.334a.734.734,0,0,1-.22.45.642.642,0,0,1-.4.094h-.8l.423-2.612a1.439,1.439,0,0,0-.057-.828.894.894,0,0,0-.9-.438h-.761l-.627,3.878h-1.411l-.307,1.9h4.422a2.477,2.477,0,0,0,1.276-.38,3.323,3.323,0,0,0,1.735.38,2.55,2.55,0,0,0,1.689-.643,3.61,3.61,0,0,0,1.1-2.209l.269-1.662a1.439,1.439,0,0,0-.057-.828" fill="#fff"/>
      <path id="Path_22" data-name="Path 22" d="M223.653,55.855a.761.761,0,0,1-.321-.049c.093-.4.151-.725.187-.947.011-.066.019-.122.027-.168l.131-.819a1.431,1.431,0,0,0-.056-.828.9.9,0,0,0-.9-.438h-.762l-.4,2.452-.016.1a4.85,4.85,0,0,1-1.22,2.706,1.7,1.7,0,0,1-1.17.433,2.3,2.3,0,0,1-.6-.079.918.918,0,0,1-.109-.031,1.522,1.522,0,0,1-.187-.079c-.72-.418-.525-1.735-.514-1.8,0-.01,0-.02.006-.03l.075-.466a3.794,3.794,0,0,1,1.09-2.027h-.559c-.983,0-2.152.733-2.485,2.79-.278,1.723.492,3.548,2.454,3.613a4.55,4.55,0,0,0,.609.037,4.085,4.085,0,0,0,3.72-2.513,1.968,1.968,0,0,0,.419.046h.988l.307-1.9Z" fill="#fff"/>
      <path id="Path_23" data-name="Path 23" d="M220.341,52.432a1.258,1.258,0,0,0,1.206-1.039.85.85,0,0,0-.872-1.026,1.262,1.262,0,0,0-1.194,1.039.845.845,0,0,0,.86,1.026" fill="#fff"/>
      <path id="Path_24" data-name="Path 24" d="M229.484,50.968a1.259,1.259,0,0,0,1.207-1.039.85.85,0,0,0-.873-1.026,1.262,1.262,0,0,0-1.194,1.039.845.845,0,0,0,.86,1.026" fill="#fff"/>
      <path id="Path_25" data-name="Path 25" d="M226.913,50.968a1.259,1.259,0,0,0,1.207-1.039.85.85,0,0,0-.873-1.026,1.262,1.262,0,0,0-1.194,1.039.845.845,0,0,0,.86,1.026" fill="#fff"/>
      <path id="Path_26" data-name="Path 26" d="M228.423,48.979a1.259,1.259,0,0,0,1.207-1.039.851.851,0,0,0-.873-1.027,1.264,1.264,0,0,0-1.194,1.04.845.845,0,0,0,.86,1.026" fill="#fff"/>
      <path id="Path_27" data-name="Path 27" d="M195.021,51.609a1.427,1.427,0,0,0,1.363-1.056.908.908,0,0,0-.967-1.056,1.41,1.41,0,0,0-1.4,1.056.9.9,0,0,0,1,1.056" fill="#fff"/>
      <path id="Path_28" data-name="Path 28" d="M195.854,55.845a1.68,1.68,0,0,1-.351-.031l.461-2.457c.117-.622.1-1.337-1.093-1.337h-.822l-.77,4.11q-.056.3-.1.564c-.156.888-.269,1.529-.608,1.794a1.587,1.587,0,0,1-.964.218,3.05,3.05,0,0,1-.34-.027l-.418-.049-.137.732c-.115.613.413,1.026,1.315,1.026a2.966,2.966,0,0,0,2.94-2.227l.072-.384h6.6l.268-1.933Z" fill="#fff"/>
      <path id="Path_29" data-name="Path 29" d="M197.658,58.307a1.418,1.418,0,0,0-1.379,1.056.906.906,0,0,0,.983,1.056,1.389,1.389,0,0,0,1.363-1.056.889.889,0,0,0-.967-1.056" fill="#fff"/>
      <path id="Path_30" data-name="Path 30" d="M203.083,57.777c1.724-.1,2.877-1.236,3.246-3.2l.226-1.2c.116-.622.1-1.337-1.094-1.337h-.821l-.567,3.023a.879.879,0,0,1-1.011.788h-2.844l-.362,1.933h3.227Z" fill="#fff"/>
      <path id="Path_31" data-name="Path 31" d="M200.229,58.307a1.41,1.41,0,0,0-1.4,1.056.9.9,0,0,0,1,1.056,1.427,1.427,0,0,0,1.363-1.056.908.908,0,0,0-.967-1.056" fill="#fff"/>
      <path id="Path_32" data-name="Path 32" d="M212.937,52.051a1.891,1.891,0,0,0-.185-.163,2.873,2.873,0,0,0-.329-.223c-.05-.031-.1-.06-.152-.087l-.016-.009a4.671,4.671,0,0,0-1.8-.366,1.839,1.839,0,0,0-2.1,1.681,4.282,4.282,0,0,1,1.993.089,1.628,1.628,0,0,1,.451.195c.009.007.017.016.027.023a1.679,1.679,0,0,1,.775,1.046,4.316,4.316,0,0,1-.02,1.608h-4.633l-.176.937a.835.835,0,0,0,.864,1l5.847-.043v-.006h.088s1.234-3.9-.634-5.678" fill="#fff"/>
    </g>
  </g>
</svg>
